# xmcd
#
# Track frame offsets:
#	300
#	17422
#	32791
#	50400
#	62639
#	77102
#	91350
#	110026
#	123677
#	134349
#
# Disc length: 2061 seconds
#
# Revision: 1
# Processed by: cddbd v1.5.1PL0 Copyright (c) Steve Scherf et al.
# Submitted via: MusicWizard 7.0.2
#
DISCID=8708090a
DTITLE=Emmylou Harris - Evangeline
DYEAR=1981
DGENRE=Country
TTITLE0=I Don't Have To Crawl
TTITLE1=How High The Moon
TTITLE2=Spanish Johnny (With Waylon Jennings)
TTITLE3=Bad Moon Rising
TTITLE4=Evangeline
TTITLE5=Hot Burrito #2
TTITLE6=Millworker
TTITLE7=Oh Atlanta
TTITLE8=Mister Sandman
TTITLE9=Ashes By Now
EXTD=(c)1981 WEA\nupc 07599568801\n(p)Brian Ahern for Happy Sack Productions
EXTT0=
EXTT1=
EXTT2=
EXTT3=
EXTT4=
EXTT5=
EXTT6=
EXTT7=
EXTT8=
EXTT9=
PLAYORDER=
